<svg width="11" height="10" viewBox="0 0 11 10" fill="none" xmlns="http://www.w3.org/2000/svg">
<path d="M6.05 8.52049H0.55C0.404131 8.52049 0.264236 8.58461 0.161091 8.69875C0.0579462 8.81288 0 8.96769 0 9.1291C0 9.29051 0.0579462 9.44531 0.161091 9.55945C0.264236 9.67359 0.404131 9.73771 0.55 9.73771H6.05C6.19587 9.73771 6.33576 9.67359 6.43891 9.55945C6.54205 9.44531 6.6 9.29051 6.6 9.1291C6.6 8.96769 6.54205 8.81288 6.43891 8.69875C6.33576 8.58461 6.19587 8.52049 6.05 8.52049ZM0.55 2.43443H4.95C5.09587 2.43443 5.23576 2.37031 5.33891 2.25617C5.44205 2.14203 5.5 1.98723 5.5 1.82582C5.5 1.66441 5.44205 1.50961 5.33891 1.39547C5.23576 1.28133 5.09587 1.21721 4.95 1.21721H0.55C0.404131 1.21721 0.264236 1.28133 0.161091 1.39547C0.0579462 1.50961 0 1.66441 0 1.82582C0 1.98723 0.0579462 2.14203 0.161091 2.25617C0.264236 2.37031 0.404131 2.43443 0.55 2.43443ZM0.55 4.86885H4.95C5.09587 4.86885 5.23576 4.80473 5.33891 4.6906C5.44205 4.57646 5.5 4.42166 5.5 4.26025C5.5 4.09883 5.44205 3.94403 5.33891 3.8299C5.23576 3.71576 5.09587 3.65164 4.95 3.65164H0.55C0.404131 3.65164 0.264236 3.71576 0.161091 3.8299C0.0579462 3.94403 0 4.09883 0 4.26025C0 4.42166 0.0579462 4.57646 0.161091 4.6906C0.264236 4.80473 0.404131 4.86885 0.55 4.86885ZM10.45 6.08607H0.55C0.404131 6.08607 0.264236 6.15019 0.161091 6.26432C0.0579462 6.37846 0 6.53326 0 6.69467C0 6.85609 0.0579462 7.01089 0.161091 7.12502C0.264236 7.23916 0.404131 7.30328 0.55 7.30328H10.45C10.5959 7.30328 10.7358 7.23916 10.8389 7.12502C10.9421 7.01089 11 6.85609 11 6.69467C11 6.53326 10.9421 6.37846 10.8389 6.26432C10.7358 6.15019 10.5959 6.08607 10.45 6.08607ZM10.45 0H7.15C7.00413 0 6.86424 0.064121 6.76109 0.178257C6.65795 0.292393 6.6 0.447194 6.6 0.608607V4.26025C6.6 4.42166 6.65795 4.57646 6.76109 4.6906C6.86424 4.80473 7.00413 4.86885 7.15 4.86885H10.45C10.5959 4.86885 10.7358 4.80473 10.8389 4.6906C10.9421 4.57646 11 4.42166 11 4.26025V0.608607C11 0.447194 10.9421 0.292393 10.8389 0.178257C10.7358 0.064121 10.5959 0 10.45 0ZM9.9 3.65164H7.7V1.21721H9.9V3.65164Z" fill="black" fill-opacity="0.38"/>
</svg>
