<svg width="11" height="15" viewBox="0 0 11 15" fill="none" xmlns="http://www.w3.org/2000/svg">
<path d="M4.88889 6.9621V10.549C4.88889 10.7355 4.95327 10.9144 5.06788 11.0463C5.18248 11.1782 5.33792 11.2523 5.5 11.2523C5.66208 11.2523 5.81752 11.1782 5.93212 11.0463C6.04673 10.9144 6.11111 10.7355 6.11111 10.549V6.9621C6.85303 6.78781 7.51228 6.30268 7.96106 5.60077C8.40985 4.89886 8.61619 4.03017 8.54008 3.16313C8.46397 2.29608 8.11084 1.49244 7.54915 0.908009C6.98745 0.323581 6.25721 0 5.5 0C4.74279 0 4.01255 0.323581 3.45085 0.908009C2.88916 1.49244 2.53602 2.29608 2.45992 3.16313C2.38381 4.03017 2.59015 4.89886 3.03893 5.60077C3.48772 6.30268 4.14697 6.78781 4.88889 6.9621ZM5.5 1.40591C5.8626 1.40591 6.21706 1.52966 6.51855 1.7615C6.82004 1.99335 7.05502 2.32287 7.19378 2.70841C7.33254 3.09396 7.36885 3.5182 7.29811 3.92748C7.22737 4.33677 7.05276 4.71273 6.79636 5.00781C6.53997 5.30289 6.2133 5.50385 5.85767 5.58526C5.50203 5.66667 5.13341 5.62489 4.79841 5.46519C4.46342 5.30549 4.17709 5.03506 3.97564 4.68808C3.77419 4.3411 3.66667 3.93316 3.66667 3.51586C3.66667 2.95626 3.85982 2.41959 4.20364 2.0239C4.54745 1.62821 5.01377 1.40591 5.5 1.40591ZM8.07278 8.73445C7.99252 8.71505 7.90974 8.71404 7.82915 8.73147C7.74855 8.74889 7.67173 8.78442 7.60307 8.83601C7.53441 8.8876 7.47524 8.95426 7.42896 9.03216C7.38268 9.11007 7.35019 9.19771 7.33333 9.29007C7.31648 9.38243 7.3156 9.47771 7.33074 9.57046C7.34588 9.66321 7.37675 9.75162 7.42158 9.83065C7.46641 9.90967 7.52432 9.97776 7.59202 10.031C7.65971 10.0843 7.73586 10.1217 7.81611 10.1411C9.20333 10.4576 9.77778 11.0273 9.77778 11.2523C9.77778 11.6602 8.28056 12.6589 5.5 12.6589C2.71944 12.6589 1.22222 11.6602 1.22222 11.2523C1.22222 11.0273 1.79667 10.4576 3.18389 10.1129C3.26414 10.0935 3.34029 10.0562 3.40798 10.0029C3.47568 9.94963 3.53359 9.88154 3.57842 9.80251C3.62325 9.72349 3.65412 9.63508 3.66926 9.54233C3.6844 9.44957 3.68352 9.3543 3.66667 9.26194C3.64981 9.16958 3.61732 9.08194 3.57104 9.00403C3.52476 8.92612 3.4656 8.85947 3.39693 8.80788C3.32827 8.75628 3.25145 8.72076 3.17085 8.70333C3.09026 8.68591 3.00747 8.68692 2.92722 8.70632C1.06944 9.19864 0 10.12 0 11.2523C0 13.102 2.76833 14.0656 5.5 14.0656C8.23167 14.0656 11 13.102 11 11.2523C11 10.12 9.93055 9.19864 8.07278 8.73445Z" fill="black" fill-opacity="0.38"/>
</svg>
