<svg width="11" height="12" viewBox="0 0 11 12" fill="none" xmlns="http://www.w3.org/2000/svg">
<path d="M6.6 3.57049H7.15C7.29587 3.57049 7.43576 3.5078 7.53891 3.3962C7.64205 3.2846 7.7 3.13324 7.7 2.97541C7.7 2.81758 7.64205 2.66622 7.53891 2.55462C7.43576 2.44302 7.29587 2.38033 7.15 2.38033H6.6C6.45413 2.38033 6.31424 2.44302 6.21109 2.55462C6.10795 2.66622 6.05 2.81758 6.05 2.97541C6.05 3.13324 6.10795 3.2846 6.21109 3.3962C6.31424 3.5078 6.45413 3.57049 6.6 3.57049ZM6.6 5.95082H7.15C7.29587 5.95082 7.43576 5.88812 7.53891 5.77652C7.64205 5.66492 7.7 5.51356 7.7 5.35574C7.7 5.19791 7.64205 5.04655 7.53891 4.93495C7.43576 4.82335 7.29587 4.76066 7.15 4.76066H6.6C6.45413 4.76066 6.31424 4.82335 6.21109 4.93495C6.10795 5.04655 6.05 5.19791 6.05 5.35574C6.05 5.51356 6.10795 5.66492 6.21109 5.77652C6.31424 5.88812 6.45413 5.95082 6.6 5.95082ZM3.85 3.57049H4.4C4.54587 3.57049 4.68576 3.5078 4.78891 3.3962C4.89205 3.2846 4.95 3.13324 4.95 2.97541C4.95 2.81758 4.89205 2.66622 4.78891 2.55462C4.68576 2.44302 4.54587 2.38033 4.4 2.38033H3.85C3.70413 2.38033 3.56424 2.44302 3.46109 2.55462C3.35795 2.66622 3.3 2.81758 3.3 2.97541C3.3 3.13324 3.35795 3.2846 3.46109 3.3962C3.56424 3.5078 3.70413 3.57049 3.85 3.57049ZM3.85 5.95082H4.4C4.54587 5.95082 4.68576 5.88812 4.78891 5.77652C4.89205 5.66492 4.95 5.51356 4.95 5.35574C4.95 5.19791 4.89205 5.04655 4.78891 4.93495C4.68576 4.82335 4.54587 4.76066 4.4 4.76066H3.85C3.70413 4.76066 3.56424 4.82335 3.46109 4.93495C3.35795 5.04655 3.3 5.19791 3.3 5.35574C3.3 5.51356 3.35795 5.66492 3.46109 5.77652C3.56424 5.88812 3.70413 5.95082 3.85 5.95082ZM10.45 10.7115H9.9V0.595082C9.9 0.437256 9.84205 0.285895 9.73891 0.174295C9.63576 0.0626959 9.49587 0 9.35 0H1.65C1.50413 0 1.36424 0.0626959 1.26109 0.174295C1.15795 0.285895 1.1 0.437256 1.1 0.595082V10.7115H0.55C0.404131 10.7115 0.264236 10.7742 0.161091 10.8858C0.0579462 10.9974 0 11.1487 0 11.3066C0 11.4644 0.0579462 11.6157 0.161091 11.7273C0.264236 11.8389 0.404131 11.9016 0.55 11.9016H10.45C10.5959 11.9016 10.7358 11.8389 10.8389 11.7273C10.9421 11.6157 11 11.4644 11 11.3066C11 11.1487 10.9421 10.9974 10.8389 10.8858C10.7358 10.7742 10.5959 10.7115 10.45 10.7115ZM6.05 10.7115H4.95V8.33115H6.05V10.7115ZM8.8 10.7115H7.15V7.73606C7.15 7.57824 7.09205 7.42688 6.98891 7.31528C6.88576 7.20368 6.74587 7.14098 6.6 7.14098H4.4C4.25413 7.14098 4.11424 7.20368 4.01109 7.31528C3.90795 7.42688 3.85 7.57824 3.85 7.73606V10.7115H2.2V1.19016H8.8V10.7115Z" fill="black" fill-opacity="0.38"/>
</svg>
