<svg width="141" height="159" viewBox="0 0 141 159" fill="none" xmlns="http://www.w3.org/2000/svg">
<path fill-rule="evenodd" clip-rule="evenodd" d="M138.323 13.4787C109.094 39.0837 61.9741 88.8406 50.7533 129.716C46.8898 143.79 35.2683 158.69 20.6737 158.69C19.4755 158.69 18.3001 158.593 17.1548 158.406C7.07546 154.158 0 144.186 0 132.561V28.0777C0.719647 22.1087 1.95657 17.3593 4.08256 13.4577C6.41397 9.63491 9.63484 6.41403 13.4576 4.08261C17.3592 1.95658 22.1087 0.719652 28.0777 0H120.517C128.6 0 135.884 3.42095 141 8.89399C140.638 10.6587 139.705 12.2679 138.323 13.4787Z" fill="white" fill-opacity="0.12"/>
</svg>
