<svg width="11" height="10" viewBox="0 0 11 10" fill="none" xmlns="http://www.w3.org/2000/svg">
<path d="M10.9831 8.43086L10.4594 6.42112L8.80955 0.386698C8.77389 0.253587 8.68663 0.139945 8.56687 0.0706586C8.4471 0.00137238 8.3046 -0.0179111 8.17057 0.0170311L6.14364 0.537689C6.09526 0.484397 6.03633 0.441623 5.97053 0.412056C5.90473 0.382488 5.8335 0.366764 5.7613 0.365872H0.523754C0.384846 0.365872 0.251627 0.420726 0.153404 0.518369C0.0551811 0.616011 0 0.748442 0 0.886529V9.21705C0 9.35513 0.0551811 9.48757 0.153404 9.58521C0.251627 9.68285 0.384846 9.73771 0.523754 9.73771H5.7613C5.9002 9.73771 6.03342 9.68285 6.13165 9.58521C6.22987 9.48757 6.28505 9.35513 6.28505 9.21705V5.05179L7.43731 9.33159C7.468 9.44518 7.53648 9.54509 7.63158 9.61505C7.72669 9.68501 7.84282 9.72091 7.96106 9.71688C8.00631 9.722 8.05199 9.722 8.09724 9.71688L10.627 9.04523C10.6939 9.02746 10.7565 8.99668 10.8114 8.95467C10.8662 8.91267 10.9121 8.86028 10.9465 8.80052C11.0017 8.68533 11.0147 8.55455 10.9831 8.43086ZM2.60306 8.71722H1.0318V7.6759H2.60306V8.71722ZM2.60306 6.63459H1.0318V3.51064H2.60306V6.63459ZM2.60306 2.46933H1.0318V1.42801H2.60306V2.46933ZM5.22183 8.71722H3.65057V7.6759H5.22183V8.71722ZM5.22183 6.63459H3.65057V3.51064H5.22183V6.63459ZM5.22183 2.46933H3.65057V1.42801H5.22183V2.46933ZM6.40028 1.56338L7.91916 1.15727L8.19152 2.16214L6.67263 2.56825L6.40028 1.56338ZM7.7568 6.59293L6.94498 3.57312L8.46387 3.16701L9.27569 6.18682L7.7568 6.59293ZM8.28055 8.60267L8.0082 7.5978L9.52709 7.19169L9.79944 8.19656L8.28055 8.60267Z" fill="black" fill-opacity="0.38"/>
</svg>
